<?xml version="1.0" encoding="utf-8" standalone="no"?>
<!DOCTYPE svg PUBLIC "-//W3C//DTD SVG 1.1//EN"
  "http://www.w3.org/Graphics/SVG/1.1/DTD/svg11.dtd">
<svg xmlns:xlink="http://www.w3.org/1999/xlink" width="566.64pt" height="354.24pt" viewBox="0 0 566.64 354.24" xmlns="http://www.w3.org/2000/svg" version="1.1">
 <metadata>
  <rdf:RDF xmlns:dc="http://purl.org/dc/elements/1.1/" xmlns:cc="http://creativecommons.org/ns#" xmlns:rdf="http://www.w3.org/1999/02/22-rdf-syntax-ns#">
   <cc:Work>
    <dc:type rdf:resource="http://purl.org/dc/dcmitype/StillImage"/>
    <dc:date>2025-07-17T13:04:45.380250</dc:date>
    <dc:format>image/svg+xml</dc:format>
    <dc:creator>
     <cc:Agent>
      <dc:title>Matplotlib v3.10.3, https://matplotlib.org/</dc:title>
     </cc:Agent>
    </dc:creator>
   </cc:Work>
  </rdf:RDF>
 </metadata>
 <defs>
  <style type="text/css">*{stroke-linejoin: round; stroke-linecap: butt}</style>
 </defs>
 <g id="figure_1">
  <g id="patch_1">
   <path d="M 0 354.24 
L 566.64 354.24 
L 566.64 0 
L 0 0 
L 0 354.24 
z
" style="fill: none"/>
  </g>
  <g id="axes_1">
   <g id="patch_2">
    <path d="M 283.32 165.78432 
C 314.877684 165.78432 345.147095 159.513727 367.461747 148.353565 
C 389.776399 137.193404 402.3144 122.054852 402.3144 106.272 
C 402.3144 90.489148 389.776399 75.350596 367.461747 64.190435 
C 345.147095 53.030273 314.877684 46.75968 283.32 46.75968 
C 251.762316 46.75968 221.492905 53.030273 199.178253 64.190435 
C 176.863601 75.350596 164.3256 90.489148 164.3256 106.272 
C 164.3256 122.054852 176.863601 137.193404 199.178253 148.353565 
C 221.492905 159.513727 251.762316 165.78432 283.32 165.78432 
z
" clip-path="url(#pb1a2377114)" style="fill: #ffffff; stroke: #000000; stroke-width: 6; stroke-linejoin: miter"/>
   </g>
   <g id="patch_3">
    <path d="M 424.98 307.48032 
C 456.537684 307.48032 486.807095 301.209727 509.121747 290.049565 
C 531.436399 278.889404 543.9744 263.750852 543.9744 247.968 
C 543.9744 232.185148 531.436399 217.046596 509.121747 205.886435 
C 486.807095 194.726273 456.537684 188.45568 424.98 188.45568 
C 393.422316 188.45568 363.152905 194.726273 340.838253 205.886435 
C 318.523601 217.046596 305.9856 232.185148 305.9856 247.968 
C 305.9856 263.750852 318.523601 278.889404 340.838253 290.049565 
C 363.152905 301.209727 393.422316 307.48032 424.98 307.48032 
z
" clip-path="url(#pb1a2377114)" style="fill: #ffffff; stroke: #000000; stroke-width: 6; stroke-linejoin: miter"/>
   </g>
   <g id="patch_4">
    <path d="M 141.66 307.48032 
C 173.217684 307.48032 203.487095 301.209727 225.801747 290.049565 
C 248.116399 278.889404 260.6544 263.750852 260.6544 247.968 
C 260.6544 232.185148 248.116399 217.046596 225.801747 205.886435 
C 203.487095 194.726273 173.217684 188.45568 141.66 188.45568 
C 110.102316 188.45568 79.832905 194.726273 57.518253 205.886435 
C 35.203601 217.046596 22.6656 232.185148 22.6656 247.968 
C 22.6656 263.750852 35.203601 278.889404 57.518253 290.049565 
C 79.832905 301.209727 110.102316 307.48032 141.66 307.48032 
z
" clip-path="url(#pb1a2377114)" style="fill: #ffffff; stroke: #000000; stroke-width: 6; stroke-linejoin: miter"/>
   </g>
   <g id="matplotlib.axis_1"/>
   <g id="matplotlib.axis_2"/>
   <g id="line2d_1">
    <path d="M 371.764087 194.738563 
L 336.535913 159.501437 
" clip-path="url(#pb1a2377114)" style="fill: none; stroke: #000000; stroke-width: 6; stroke-linecap: square"/>
   </g>
   <g id="line2d_2">
    <path d="M 230.104087 159.501437 
L 194.875913 194.738563 
" clip-path="url(#pb1a2377114)" style="fill: none; stroke: #000000; stroke-width: 6; stroke-linecap: square"/>
   </g>
   <g id="line2d_3">
    <path d="M 260.6544 247.968 
L 305.9856 247.968 
" clip-path="url(#pb1a2377114)" style="fill: none; stroke: #000000; stroke-width: 6; stroke-linecap: square"/>
   </g>
   <g id="text_1">
    <!-- innovate -->
    <g transform="translate(204.335 115.102) scale(0.32 -0.32)">
     <defs>
      <path id="DejaVuSans-Bold-69" d="M 538 3500 
L 1656 3500 
L 1656 0 
L 538 0 
L 538 3500 
z
M 538 4863 
L 1656 4863 
L 1656 3950 
L 538 3950 
L 538 4863 
z
" transform="scale(0.015625)"/>
      <path id="DejaVuSans-Bold-6e" d="M 4056 2131 
L 4056 0 
L 2931 0 
L 2931 347 
L 2931 1631 
Q 2931 2084 2911 2256 
Q 2891 2428 2841 2509 
Q 2775 2619 2662 2680 
Q 2550 2741 2406 2741 
Q 2056 2741 1856 2470 
Q 1656 2200 1656 1722 
L 1656 0 
L 538 0 
L 538 3500 
L 1656 3500 
L 1656 2988 
Q 1909 3294 2193 3439 
Q 2478 3584 2822 3584 
Q 3428 3584 3742 3212 
Q 4056 2841 4056 2131 
z
" transform="scale(0.015625)"/>
      <path id="DejaVuSans-Bold-6f" d="M 2203 2784 
Q 1831 2784 1636 2517 
Q 1441 2250 1441 1747 
Q 1441 1244 1636 976 
Q 1831 709 2203 709 
Q 2569 709 2762 976 
Q 2956 1244 2956 1747 
Q 2956 2250 2762 2517 
Q 2569 2784 2203 2784 
z
M 2203 3584 
Q 3106 3584 3614 3096 
Q 4122 2609 4122 1747 
Q 4122 884 3614 396 
Q 3106 -91 2203 -91 
Q 1297 -91 786 396 
Q 275 884 275 1747 
Q 275 2609 786 3096 
Q 1297 3584 2203 3584 
z
" transform="scale(0.015625)"/>
      <path id="DejaVuSans-Bold-76" d="M 97 3500 
L 1216 3500 
L 2088 1081 
L 2956 3500 
L 4078 3500 
L 2700 0 
L 1472 0 
L 97 3500 
z
" transform="scale(0.015625)"/>
      <path id="DejaVuSans-Bold-61" d="M 2106 1575 
Q 1756 1575 1579 1456 
Q 1403 1338 1403 1106 
Q 1403 894 1545 773 
Q 1688 653 1941 653 
Q 2256 653 2472 879 
Q 2688 1106 2688 1447 
L 2688 1575 
L 2106 1575 
z
M 3816 1997 
L 3816 0 
L 2688 0 
L 2688 519 
Q 2463 200 2181 54 
Q 1900 -91 1497 -91 
Q 953 -91 614 226 
Q 275 544 275 1050 
Q 275 1666 698 1953 
Q 1122 2241 2028 2241 
L 2688 2241 
L 2688 2328 
Q 2688 2594 2478 2717 
Q 2269 2841 1825 2841 
Q 1466 2841 1156 2769 
Q 847 2697 581 2553 
L 581 3406 
Q 941 3494 1303 3539 
Q 1666 3584 2028 3584 
Q 2975 3584 3395 3211 
Q 3816 2838 3816 1997 
z
" transform="scale(0.015625)"/>
      <path id="DejaVuSans-Bold-74" d="M 1759 4494 
L 1759 3500 
L 2913 3500 
L 2913 2700 
L 1759 2700 
L 1759 1216 
Q 1759 972 1856 886 
Q 1953 800 2241 800 
L 2816 800 
L 2816 0 
L 1856 0 
Q 1194 0 917 276 
Q 641 553 641 1216 
L 641 2700 
L 84 2700 
L 84 3500 
L 641 3500 
L 641 4494 
L 1759 4494 
z
" transform="scale(0.015625)"/>
      <path id="DejaVuSans-Bold-65" d="M 4031 1759 
L 4031 1441 
L 1416 1441 
Q 1456 1047 1700 850 
Q 1944 653 2381 653 
Q 2734 653 3104 758 
Q 3475 863 3866 1075 
L 3866 213 
Q 3469 63 3072 -14 
Q 2675 -91 2278 -91 
Q 1328 -91 801 392 
Q 275 875 275 1747 
Q 275 2603 792 3093 
Q 1309 3584 2216 3584 
Q 3041 3584 3536 3087 
Q 4031 2591 4031 1759 
z
M 2881 2131 
Q 2881 2450 2695 2645 
Q 2509 2841 2209 2841 
Q 1884 2841 1681 2658 
Q 1478 2475 1428 2131 
L 2881 2131 
z
" transform="scale(0.015625)"/>
     </defs>
     <use xlink:href="#DejaVuSans-Bold-69"/>
     <use xlink:href="#DejaVuSans-Bold-6e" transform="translate(34.277344 0)"/>
     <use xlink:href="#DejaVuSans-Bold-6e" transform="translate(105.46875 0)"/>
     <use xlink:href="#DejaVuSans-Bold-6f" transform="translate(176.660156 0)"/>
     <use xlink:href="#DejaVuSans-Bold-76" transform="translate(245.361328 0)"/>
     <use xlink:href="#DejaVuSans-Bold-61" transform="translate(310.546875 0)"/>
     <use xlink:href="#DejaVuSans-Bold-74" transform="translate(378.027344 0)"/>
     <use xlink:href="#DejaVuSans-Bold-65" transform="translate(425.830078 0)"/>
    </g>
   </g>
   <g id="text_2">
    <!-- resolve -->
    <g transform="translate(358.955 256.798) scale(0.32 -0.32)">
     <defs>
      <path id="DejaVuSans-Bold-72" d="M 3138 2547 
Q 2991 2616 2845 2648 
Q 2700 2681 2553 2681 
Q 2122 2681 1889 2404 
Q 1656 2128 1656 1613 
L 1656 0 
L 538 0 
L 538 3500 
L 1656 3500 
L 1656 2925 
Q 1872 3269 2151 3426 
Q 2431 3584 2822 3584 
Q 2878 3584 2943 3579 
Q 3009 3575 3134 3559 
L 3138 2547 
z
" transform="scale(0.015625)"/>
      <path id="DejaVuSans-Bold-73" d="M 3272 3391 
L 3272 2541 
Q 2913 2691 2578 2766 
Q 2244 2841 1947 2841 
Q 1628 2841 1473 2761 
Q 1319 2681 1319 2516 
Q 1319 2381 1436 2309 
Q 1553 2238 1856 2203 
L 2053 2175 
Q 2913 2066 3209 1816 
Q 3506 1566 3506 1031 
Q 3506 472 3093 190 
Q 2681 -91 1863 -91 
Q 1516 -91 1145 -36 
Q 775 19 384 128 
L 384 978 
Q 719 816 1070 734 
Q 1422 653 1784 653 
Q 2113 653 2278 743 
Q 2444 834 2444 1013 
Q 2444 1163 2330 1236 
Q 2216 1309 1875 1350 
L 1678 1375 
Q 931 1469 631 1722 
Q 331 1975 331 2491 
Q 331 3047 712 3315 
Q 1094 3584 1881 3584 
Q 2191 3584 2531 3537 
Q 2872 3491 3272 3391 
z
" transform="scale(0.015625)"/>
      <path id="DejaVuSans-Bold-6c" d="M 538 4863 
L 1656 4863 
L 1656 0 
L 538 0 
L 538 4863 
z
" transform="scale(0.015625)"/>
     </defs>
     <use xlink:href="#DejaVuSans-Bold-72"/>
     <use xlink:href="#DejaVuSans-Bold-65" transform="translate(49.316406 0)"/>
     <use xlink:href="#DejaVuSans-Bold-73" transform="translate(117.138672 0)"/>
     <use xlink:href="#DejaVuSans-Bold-6f" transform="translate(176.660156 0)"/>
     <use xlink:href="#DejaVuSans-Bold-6c" transform="translate(245.361328 0)"/>
     <use xlink:href="#DejaVuSans-Bold-76" transform="translate(279.638672 0)"/>
     <use xlink:href="#DejaVuSans-Bold-65" transform="translate(344.824219 0)"/>
    </g>
   </g>
   <g id="text_3">
    <!-- deploy -->
    <g transform="translate(80.995 256.673) scale(0.32 -0.32)">
     <defs>
      <path id="DejaVuSans-Bold-64" d="M 2919 2988 
L 2919 4863 
L 4044 4863 
L 4044 0 
L 2919 0 
L 2919 506 
Q 2688 197 2409 53 
Q 2131 -91 1766 -91 
Q 1119 -91 703 423 
Q 288 938 288 1747 
Q 288 2556 703 3070 
Q 1119 3584 1766 3584 
Q 2128 3584 2408 3439 
Q 2688 3294 2919 2988 
z
M 2181 722 
Q 2541 722 2730 984 
Q 2919 1247 2919 1747 
Q 2919 2247 2730 2509 
Q 2541 2772 2181 2772 
Q 1825 2772 1636 2509 
Q 1447 2247 1447 1747 
Q 1447 1247 1636 984 
Q 1825 722 2181 722 
z
" transform="scale(0.015625)"/>
      <path id="DejaVuSans-Bold-70" d="M 1656 506 
L 1656 -1331 
L 538 -1331 
L 538 3500 
L 1656 3500 
L 1656 2988 
Q 1888 3294 2169 3439 
Q 2450 3584 2816 3584 
Q 3463 3584 3878 3070 
Q 4294 2556 4294 1747 
Q 4294 938 3878 423 
Q 3463 -91 2816 -91 
Q 2450 -91 2169 54 
Q 1888 200 1656 506 
z
M 2400 2772 
Q 2041 2772 1848 2508 
Q 1656 2244 1656 1747 
Q 1656 1250 1848 986 
Q 2041 722 2400 722 
Q 2759 722 2948 984 
Q 3138 1247 3138 1747 
Q 3138 2247 2948 2509 
Q 2759 2772 2400 2772 
z
" transform="scale(0.015625)"/>
      <path id="DejaVuSans-Bold-79" d="M 78 3500 
L 1197 3500 
L 2138 1125 
L 2938 3500 
L 4056 3500 
L 2584 -331 
Q 2363 -916 2067 -1148 
Q 1772 -1381 1288 -1381 
L 641 -1381 
L 641 -647 
L 991 -647 
Q 1275 -647 1404 -556 
Q 1534 -466 1606 -231 
L 1638 -134 
L 78 3500 
z
" transform="scale(0.015625)"/>
     </defs>
     <use xlink:href="#DejaVuSans-Bold-64"/>
     <use xlink:href="#DejaVuSans-Bold-65" transform="translate(71.582031 0)"/>
     <use xlink:href="#DejaVuSans-Bold-70" transform="translate(139.404297 0)"/>
     <use xlink:href="#DejaVuSans-Bold-6c" transform="translate(210.986328 0)"/>
     <use xlink:href="#DejaVuSans-Bold-6f" transform="translate(245.263672 0)"/>
     <use xlink:href="#DejaVuSans-Bold-79" transform="translate(313.964844 0)"/>
    </g>
   </g>
  </g>
 </g>
 <defs>
  <clipPath id="pb1a2377114">
   <rect x="0" y="0" width="566.64" height="354.24"/>
  </clipPath>
 </defs>
</svg>
